<svg id="Close_Gray" data-name="Close / Gray" xmlns="http://www.w3.org/2000/svg" width="24" height="24" viewBox="0 0 24 24">
  <rect id="Frame" width="24" height="24" fill="none"/>
  <path id="Close" d="M10.9,9l2.8,2.8a.864.864,0,0,1,.3.6,1.08,1.08,0,0,1-.3.7l-.6.6a.908.908,0,0,1-.7.3.6.6,0,0,1-.6-.3L9,10.9,6.2,13.7a.967.967,0,0,1-1.4,0l-.6-.6a1.421,1.421,0,0,1-.2-.6.713.713,0,0,1,.3-.6L7.1,9,4.3,6.2a.967.967,0,0,1,0-1.4l.6-.6A1.421,1.421,0,0,1,5.5,4a1.08,1.08,0,0,1,.7.3L9,7.1l2.8-2.8a.967.967,0,0,1,1.4,0l.6.6a1.421,1.421,0,0,1,.2.6,1.08,1.08,0,0,1-.3.7Z" transform="translate(3 3)" fill="#6a6e73" fill-rule="evenodd"/>
</svg>
